# xmcd
#
# Track frame offsets:
#	150
#	22520
#	46866
#	66047
#	79996
#	104098
#	125371
#	148586
#	173491
#	194336
#	223926
#	243524
#	270304
#	293119
#	311085
#	327680
#	348925
#
# Disc length: 4797 seconds
#
# Revision: 1
# Processed by: cddbd v1.5.1PL0 Copyright (c) Steve Scherf et al.
# Submitted via: audiograbber 1.82.02
#
DISCID=fc12bb11
DTITLE=Tony Joe White - De Luxe Collection
DYEAR=1991
DGENRE=
TTITLE0=Catawalling Alley in nice
TTITLE1=Always the song
TTITLE2=Gumbo John
TTITLE3=Down by the border
TTITLE4=Lake placid blues
TTITLE5=Louisiana Rain
TTITLE6=Beach life
TTITLE7=The guitar don't lie
TTITLE8=Bayou woman
TTITLE9=Closer to the truth
TTITLE10=Main squeeze
TTITLE11=The other side
TTITLE12=I want my fleetwood back
TTITLE13=Don't over do it
TTITLE14=Paris mood tonight
TTITLE15=Let the healing begin
TTITLE16=Cool town woman
EXTD=Remark Records
EXTT0=
EXTT1=
EXTT2=
EXTT3=
EXTT4=
EXTT5=
EXTT6=
EXTT7=
EXTT8=
EXTT9=
EXTT10=
EXTT11=
EXTT12=
EXTT13=
EXTT14=
EXTT15=
EXTT16=
PLAYORDER=
